<?xml version="1.0" encoding="UTF-8" standalone="no"?>
<svg
   width="220.091pt"
   height="225.12601pt"
   version="1.1"
   viewBox="0 0 220.091 225.12601"
   id="svg169"
   sodipodi:docname="hash.svg"
   inkscape:export-filename="hash.png"
   inkscape:export-xdpi="96"
   inkscape:export-ydpi="96"
   xmlns:inkscape="http://www.inkscape.org/namespaces/inkscape"
   xmlns:sodipodi="http://sodipodi.sourceforge.net/DTD/sodipodi-0.dtd"
   xmlns="http://www.w3.org/2000/svg"
   xmlns:svg="http://www.w3.org/2000/svg">
  <sodipodi:namedview
     id="namedview171"
     pagecolor="#ffffff"
     bordercolor="#000000"
     borderopacity="0.25"
     inkscape:showpageshadow="2"
     inkscape:pageopacity="0.0"
     inkscape:pagecheckerboard="0"
     inkscape:deskcolor="#d1d1d1"
     inkscape:document-units="pt"
     showgrid="false" />
  <defs
     id="defs91" />
  <path
     d="M 208.325,147.844 H 169.126 V 77.282 h 39.199 c 6.7188,0 11.762,-5.0391 11.762,-11.762 0,-6.7188 -5.0391,-11.762 -11.762,-11.762 H 169.126 V 11.762 C 169.126,5.0432 164.0869,0 157.364,0 150.6452,0 145.602,5.6016 145.602,11.762 V 53.203 H 74.485 V 11.762 C 74.485,5.0432 69.4459,0 62.723,0 56.0042,0 50.961,5.6016 50.961,11.762 V 53.203 H 11.762 C 5.0432,53.203 0,58.2421 0,64.965 0,71.6838 5.0391,76.727 11.762,76.727 h 39.199 v 71.121 H 11.762 C 5.0432,147.848 0,152.8871 0,159.61 c 0,6.7188 5.0391,11.762 11.762,11.762 h 39.199 l 0.004,41.992 c 0,6.7188 5.0391,11.762 11.762,11.762 6.7188,0 11.762,-5.0391 11.762,-11.762 v -41.441 h 71.121 l -0.004,41.441 c 0,6.7188 5.0391,11.762 11.762,11.762 6.7188,0 11.762,-5.0391 11.762,-11.762 v -41.441 h 39.199 c 6.7188,0 11.762,-5.0391 11.762,-11.762 -0.004,-6.7188 -5.6055,-12.316 -11.766,-12.316 z m -133.84,0 V 77.282 h 71.121 v 71.121 H 74.485 Z"
     id="path93" />
  <path
     style="fill:#ffffff;stroke-width:0.285693"
     d="m 59.573891,224.5436 c -4.410844,-1.23731 -7.53709,-4.79683 -8.29897,-9.44913 -0.158973,-0.97075 -0.27613,-10.59067 -0.277087,-22.75174 l -0.0016,-21.06985 H 31.036672 c -12.212619,0 -20.548682,-0.11173 -21.4774877,-0.28787 -6.2006251,-1.17594 -10.27875371,-7.06832 -9.2100484,-13.30737 0.8957718,-5.22948 4.7169549,-8.84004 10.0943091,-9.53789 1.178343,-0.15292 10.696315,-0.27997 21.339888,-0.28486 l 19.212846,-0.009 V 112.27727 76.708507 l -19.498539,-0.006 C 20.773444,76.699635 11.188385,76.579822 10.19751,76.436535 2.2576308,75.28842 -2.024791,67.172445 1.3823689,59.730228 2.7666598,56.706538 6.048424,54.228363 9.5382825,53.571412 10.485661,53.393071 18.74904,53.281723 31.036672,53.281723 h 19.959507 l 0.005,-20.927004 c 0.0054,-23.1463315 0.0314,-23.5328627 1.776169,-26.4374651 1.207752,-2.0106334 3.041598,-3.6330181 5.361132,-4.7429541 1.688731,-0.80808492 2.102943,-0.88699404 4.571087,-0.87080776 2.099454,0.0137684 3.079789,0.16162774 4.328973,0.65291794 2.25463,0.88672212 4.111468,2.39380422 5.393795,4.37781442 1.998605,3.0922281 1.99064,2.9850246 1.99064,26.7912006 v 21.156298 h 35.704835 35.70484 l 0.0782,-22.212622 0.0782,-22.2126217 0.76675,-1.6359588 c 1.01676,-2.1694 2.28617,-3.7053058 4.08807,-4.9463183 6.82125,-4.6979815 16.11981,-1.0700921 17.82223,6.9534551 0.22163,1.0445257 0.32123,8.1976527 0.32123,23.0696997 v 21.555752 h 20.22416 c 21.65388,0 21.85254,0.01171 24.67891,1.453611 1.91955,0.979283 3.8775,3.026936 4.86879,5.091864 0.74556,1.553049 0.92539,2.320326 1.02764,4.38466 0.2733,5.51723 -2.499,9.809627 -7.5745,11.727743 -1.6412,0.620243 -1.85093,0.626903 -22.44085,0.712905 l -20.78416,0.0868 v 35.267688 35.26768 l 19.3557,0.006 c 10.64563,0.003 20.18166,0.12514 21.1912,0.27104 3.92995,0.56804 7.43663,3.25138 9.24896,7.07737 0.85659,1.80834 0.91464,2.13027 0.91464,5.07348 0,3.00025 -0.0437,3.22978 -0.96553,5.06658 -1.64618,3.28028 -4.64036,5.52055 -8.30797,6.2161 -0.92881,0.17615 -9.26487,0.28788 -21.47749,0.28788 h -19.95951 l -0.004,21.49839 c -0.004,22.88382 -0.002,22.86047 -1.40179,25.59791 -2.26453,4.42956 -7.80074,6.90308 -12.8467,5.73978 -3.35262,-0.77292 -6.49917,-3.32988 -7.97619,-6.48165 l -0.7702,-1.64349 -0.0781,-22.35547 -0.0782,-22.35547 H 110.1275 74.422622 v 21.1563 c 0,23.80618 0.008,23.69897 -1.990639,26.7912 -2.005881,3.10349 -5.177678,4.86272 -9.151383,5.07578 -1.388141,0.0744 -2.693598,-0.0397 -3.707082,-0.32394 z M 145.84621,112.84869 V 77.279925 H 110.1346 74.422996 v 35.568765 35.56876 h 35.711604 35.71161 z"
     id="path248" />
</svg>
