<?xml version="1.0" encoding="UTF-8" standalone="no"?>
<svg
   width="220.09102pt"
   height="225.12599pt"
   version="1.1"
   viewBox="0 0 220.09102 225.12599"
   id="svg169"
   sodipodi:docname="noun-hash-2329533.svg"
   xmlns:inkscape="http://www.inkscape.org/namespaces/inkscape"
   xmlns:sodipodi="http://sodipodi.sourceforge.net/DTD/sodipodi-0.dtd"
   xmlns="http://www.w3.org/2000/svg"
   xmlns:svg="http://www.w3.org/2000/svg">
  <sodipodi:namedview
     id="namedview171"
     pagecolor="#ffffff"
     bordercolor="#000000"
     borderopacity="0.25"
     inkscape:showpageshadow="2"
     inkscape:pageopacity="0.0"
     inkscape:pagecheckerboard="0"
     inkscape:deskcolor="#d1d1d1"
     inkscape:document-units="pt"
     showgrid="false" />
  <defs
     id="defs91" />
  <path
     d="M 208.325,147.844 H 169.126 V 77.282 h 39.199 c 6.7188,0 11.762,-5.0391 11.762,-11.762 0,-6.7188 -5.0391,-11.762 -11.762,-11.762 H 169.126 V 11.762 C 169.126,5.0432 164.0869,0 157.364,0 150.6452,0 145.602,5.6016 145.602,11.762 V 53.203 H 74.485 V 11.762 C 74.485,5.0432 69.4459,0 62.723,0 56.0042,0 50.961,5.6016 50.961,11.762 V 53.203 H 11.762 C 5.0432,53.203 0,58.2421 0,64.965 0,71.6838 5.0391,76.727 11.762,76.727 h 39.199 v 71.121 H 11.762 C 5.0432,147.848 0,152.8871 0,159.61 c 0,6.7188 5.0391,11.762 11.762,11.762 h 39.199 l 0.004,41.992 c 0,6.7188 5.0391,11.762 11.762,11.762 6.7188,0 11.762,-5.0391 11.762,-11.762 v -41.441 h 71.121 l -0.004,41.441 c 0,6.7188 5.0391,11.762 11.762,11.762 6.7188,0 11.762,-5.0391 11.762,-11.762 v -41.441 h 39.199 c 6.7188,0 11.762,-5.0391 11.762,-11.762 -0.004,-6.7188 -5.6055,-12.316 -11.766,-12.316 z m -133.84,0 V 77.282 h 71.121 v 71.121 H 74.485 Z"
     id="path93" />
</svg>
